<svg xmlns="http://www.w3.org/2000/svg" xmlns:xlink="http://www.w3.org/1999/xlink" width="500" zoomAndPan="magnify" viewBox="0 0 375 374.999991" height="500" preserveAspectRatio="xMidYMid meet" version="1.0"><defs><g/></defs><rect x="-37.5" width="450" fill="#ffffff" y="-37.499999" height="449.999989" fill-opacity="1"/><rect x="-37.5" width="450" fill="#000000" y="-37.499999" height="449.999989" fill-opacity="1"/><g fill="#ffffff" fill-opacity="1"><g transform="translate(49.786326, 213.272067)"><g><path d="M 9.09375 0 L 9.09375 -29.53125 L 32.546875 -29.53125 L 32.546875 -25.09375 L 13.53125 -25.09375 L 13.53125 0 Z M 9.09375 0 "/></g></g></g><g fill="#ffffff" fill-opacity="1"><g transform="translate(85.223778, 213.272067)"><g><path d="M 16.359375 -20.140625 C 18.210938 -20.140625 19.914062 -19.875 21.46875 -19.34375 C 23.019531 -18.8125 24.09375 -18.132812 24.6875 -17.3125 L 24.984375 -16.890625 L 24.984375 -25.390625 L 7.5625 -25.390625 L 7.5625 -29.53125 L 29.40625 -29.53125 L 29.40625 0 L 24.984375 0 L 24.984375 -2.78125 L 24.6875 -2.484375 C 23.738281 -1.535156 22.535156 -0.742188 21.078125 -0.109375 C 19.628906 0.515625 18.15625 0.828125 16.65625 0.828125 C 14.25 0.828125 12.128906 0.375 10.296875 -0.53125 C 8.472656 -1.4375 7.035156 -2.695312 5.984375 -4.3125 C 4.941406 -5.925781 4.421875 -7.773438 4.421875 -9.859375 C 4.421875 -11.867188 4.921875 -13.648438 5.921875 -15.203125 C 6.929688 -16.765625 8.34375 -17.976562 10.15625 -18.84375 C 11.96875 -19.707031 14.035156 -20.140625 16.359375 -20.140625 Z M 8.859375 -9.859375 C 8.859375 -7.929688 9.585938 -6.359375 11.046875 -5.140625 C 12.503906 -3.921875 14.375 -3.3125 16.65625 -3.3125 C 19.09375 -3.3125 21.085938 -3.921875 22.640625 -5.140625 C 24.203125 -6.359375 24.984375 -7.929688 24.984375 -9.859375 C 24.984375 -11.671875 24.1875 -13.144531 22.59375 -14.28125 C 21 -15.425781 18.921875 -16 16.359375 -16 C 14.148438 -16 12.347656 -15.425781 10.953125 -14.28125 C 9.554688 -13.144531 8.859375 -11.671875 8.859375 -9.859375 Z M 8.859375 -9.859375 "/></g></g></g><g fill="#ffffff" fill-opacity="1"><g transform="translate(120.66123, 213.272067)"><g><path d="M 18.125 -3.359375 C 20.257812 -3.359375 22.101562 -4.007812 23.65625 -5.3125 C 25.207031 -6.613281 26.238281 -8.367188 26.75 -10.578125 L 31.0625 -10.578125 C 30.394531 -7.109375 28.898438 -4.347656 26.578125 -2.296875 C 24.253906 -0.253906 21.4375 0.765625 18.125 0.765625 C 15.257812 0.765625 12.757812 0.125 10.625 -1.15625 C 8.5 -2.4375 6.851562 -4.265625 5.6875 -6.640625 C 4.53125 -9.023438 3.953125 -11.832031 3.953125 -15.0625 C 3.953125 -18.332031 4.515625 -21.144531 5.640625 -23.5 C 6.765625 -25.863281 8.359375 -27.6875 10.421875 -28.96875 C 12.492188 -30.25 14.945312 -30.890625 17.78125 -30.890625 C 21.28125 -30.890625 24.226562 -29.816406 26.625 -27.671875 C 29.03125 -25.523438 30.507812 -22.617188 31.0625 -18.953125 L 26.75 -18.953125 C 26.363281 -21.359375 25.351562 -23.257812 23.71875 -24.65625 C 22.082031 -26.050781 20.101562 -26.75 17.78125 -26.75 C 14.820312 -26.75 12.503906 -25.707031 10.828125 -23.625 C 9.160156 -21.539062 8.347656 -18.6875 8.390625 -15.0625 C 8.460938 -11.476562 9.375 -8.628906 11.125 -6.515625 C 12.882812 -4.410156 15.21875 -3.359375 18.125 -3.359375 Z M 18.125 -3.359375 "/></g></g></g><g fill="#ffffff" fill-opacity="1"><g transform="translate(156.098682, 213.272067)"><g><path d="M 3.546875 -15.0625 C 3.546875 -18.332031 4.101562 -21.144531 5.21875 -23.5 C 6.34375 -25.863281 7.9375 -27.6875 10 -28.96875 C 12.070312 -30.25 14.507812 -30.890625 17.3125 -30.890625 C 19.988281 -30.890625 22.3125 -30.238281 24.28125 -28.9375 C 26.25 -27.632812 27.765625 -25.773438 28.828125 -23.359375 C 29.890625 -20.941406 30.421875 -18.078125 30.421875 -14.765625 L 30.421875 -14.296875 L 7.921875 -14.296875 C 8.109375 -10.941406 9.085938 -8.28125 10.859375 -6.3125 C 12.640625 -4.34375 14.925781 -3.359375 17.71875 -3.359375 C 20.238281 -3.359375 22.234375 -3.988281 23.703125 -5.25 C 25.179688 -6.507812 26.039062 -8.285156 26.28125 -10.578125 L 30.421875 -10.578125 C 30.023438 -6.953125 28.734375 -4.15625 26.546875 -2.1875 C 24.359375 -0.21875 21.414062 0.765625 17.71875 0.765625 C 14.84375 0.765625 12.34375 0.125 10.21875 -1.15625 C 8.09375 -2.4375 6.445312 -4.265625 5.28125 -6.640625 C 4.125 -9.023438 3.546875 -11.832031 3.546875 -15.0625 Z M 17.3125 -26.75 C 14.789062 -26.832031 12.726562 -26.125 11.125 -24.625 C 9.53125 -23.132812 8.640625 -21.066406 8.453125 -18.421875 L 25.8125 -18.421875 C 25.65625 -20.898438 24.804688 -22.890625 23.265625 -24.390625 C 21.734375 -25.890625 19.75 -26.675781 17.3125 -26.75 Z M 17.3125 -26.75 "/></g></g></g><g fill="#ffffff" fill-opacity="1"><g transform="translate(191.536134, 213.272067)"><g><path d="M 33.078125 0 L 3.359375 0 L 3.359375 -4.140625 L 15.46875 -4.140625 L 15.46875 -38.796875 L 6.265625 -38.796875 L 6.265625 -42.9375 L 19.90625 -42.9375 L 19.90625 -4.140625 L 33.078125 -4.140625 Z M 33.078125 0 "/></g></g></g><g fill="#ffffff" fill-opacity="1"><g transform="translate(226.973586, 213.272067)"><g><path d="M 13.9375 -35.796875 L 13.9375 -42.9375 L 21.078125 -42.9375 L 21.078125 -35.796875 Z M 21.078125 -4.140625 L 34.25 -4.140625 L 34.25 0 L 3.359375 0 L 3.359375 -4.140625 L 16.65625 -4.140625 L 16.65625 -26.75 L 6.265625 -26.75 L 6.265625 -30.890625 L 21.078125 -30.890625 Z M 21.078125 -4.140625 "/></g></g></g><g fill="#ffffff" fill-opacity="1"><g transform="translate(262.411038, 213.272067)"><g><path d="M 5.546875 0 L 5.546875 -29.53125 L 30.53125 -29.53125 L 30.59375 0 L 26.171875 0 L 26.109375 -25.390625 L 9.984375 -25.390625 L 9.984375 0 Z M 5.546875 0 "/></g></g></g><g fill="#ffffff" fill-opacity="1"><g transform="translate(297.848489, 213.272067)"><g><path d="M 11.8125 -6.671875 L 11.8125 0 L 7.375 0 L 7.375 -42.9375 L 11.8125 -42.9375 L 11.8125 -12.703125 L 27.515625 -29.53125 L 32.84375 -29.53125 L 20.609375 -16.234375 L 33.78125 0 L 28.171875 0 L 17.546875 -12.9375 Z M 11.8125 -6.671875 "/></g></g></g></svg>